/* XPM */
const static char *ledGreen[] = {
/* columns rows colors chars-per-pixel */
"13 13 8 1 ",
"  c #003202",
". c #330000",
"X c #00B504",
"o c #50FC54",
"O c #C6C6C4",
"+ c gray100",
"@ c None",
"# c black",
/* pixels */
"@@@@@@@@@@@@@",
"@@@.    .@@@@",
"@@  XXXXX @@@",
"@. o+XXXXX.@@",
"@ X+oXXXXX @@",
"@ XXXXXXXX @@",
"@ XXXXXXoX .@",
"@ XXXXXooX .@",
"@. XXXooX ..@",
"@@ XXXXX  ...",
"@@@.    ....@",
"@@@@@@......@",
"@@@@@@@@@.@@@"
};
