/* XPM */
const static char *ledRed[] = {
/* columns rows colors chars-per-pixel */
"13 13 7 1",
"  c #330000",
". c #410101",
"X c #F50202",
"o c #FC6C6C",
"O c #C6C6C4",
"+ c gray100",
"@ c None",
/* pixels */
"@@@@@@@@@@@@@",
"@@@ .... @@@@",
"@@..XXXXX.@@@",
"@ .o+XXXXX @@",
"@.X+oXXXXX.@@",
"@.XXXXXXXX.@@",
"@.XXXXXXoX. @",
"@.XXXXXooX. @",
"@ XXXXooX.  @",
"@@.XXXXX..   ",
"@@@ ....    @",
"@@@@@@      @",
"@@@@@@@@@ @@@"
};
